<mxfile host="Electron" agent="Mozilla/5.0 (Windows NT 10.0; Win64; x64) AppleWebKit/537.36 (KHTML, like Gecko) draw.io/26.0.9 Chrome/128.0.6613.186 Electron/32.2.5 Safari/537.36" version="26.0.9">
  <diagram name="Página-1" id="_W75LPxigu0AfWbB__bw">
    <mxGraphModel dx="1373" dy="2150" grid="1" gridSize="10" guides="1" tooltips="1" connect="1" arrows="1" fold="1" page="1" pageScale="1" pageWidth="827" pageHeight="1169" math="0" shadow="0">
      <root>
        <mxCell id="0" />
        <mxCell id="1" parent="0" />
        <mxCell id="UrGpD2XHEWLCbBZksvqv-1" value="Usuario estandar" style="shape=umlActor;verticalLabelPosition=bottom;verticalAlign=top;html=1;outlineConnect=0;" vertex="1" parent="1">
          <mxGeometry x="144.5" y="-70" width="30" height="60" as="geometry" />
        </mxCell>
        <mxCell id="UrGpD2XHEWLCbBZksvqv-2" value="Usuario experto&lt;div&gt;&lt;br&gt;&lt;/div&gt;" style="shape=umlActor;verticalLabelPosition=bottom;verticalAlign=top;html=1;outlineConnect=0;" vertex="1" parent="1">
          <mxGeometry x="144.5" y="-400" width="30" height="60" as="geometry" />
        </mxCell>
        <mxCell id="UrGpD2XHEWLCbBZksvqv-3" value="Administrador" style="shape=umlActor;verticalLabelPosition=bottom;verticalAlign=top;html=1;outlineConnect=0;" vertex="1" parent="1">
          <mxGeometry x="130" y="540" width="30" height="60" as="geometry" />
        </mxCell>
        <mxCell id="UrGpD2XHEWLCbBZksvqv-8" value="Actualizar seccion FAQ" style="ellipse;whiteSpace=wrap;html=1;" vertex="1" parent="1">
          <mxGeometry x="310" y="480" width="320" height="80" as="geometry" />
        </mxCell>
        <mxCell id="UrGpD2XHEWLCbBZksvqv-9" value="Gestion de usuarios (alta, bajas y modificar datos)" style="ellipse;whiteSpace=wrap;html=1;" vertex="1" parent="1">
          <mxGeometry x="300" y="580" width="340" height="80" as="geometry" />
        </mxCell>
        <mxCell id="UrGpD2XHEWLCbBZksvqv-11" value="" style="endArrow=none;html=1;rounded=0;exitX=0.5;exitY=0.5;exitDx=0;exitDy=0;exitPerimeter=0;entryX=0;entryY=0.5;entryDx=0;entryDy=0;" edge="1" parent="1" source="UrGpD2XHEWLCbBZksvqv-3" target="UrGpD2XHEWLCbBZksvqv-8">
          <mxGeometry width="50" height="50" relative="1" as="geometry">
            <mxPoint x="400" y="520" as="sourcePoint" />
            <mxPoint x="450" y="470" as="targetPoint" />
          </mxGeometry>
        </mxCell>
        <mxCell id="UrGpD2XHEWLCbBZksvqv-12" value="" style="endArrow=none;html=1;rounded=0;exitX=0.5;exitY=0.5;exitDx=0;exitDy=0;exitPerimeter=0;entryX=0;entryY=0.5;entryDx=0;entryDy=0;" edge="1" parent="1" source="UrGpD2XHEWLCbBZksvqv-3" target="UrGpD2XHEWLCbBZksvqv-9">
          <mxGeometry width="50" height="50" relative="1" as="geometry">
            <mxPoint x="155" y="580" as="sourcePoint" />
            <mxPoint x="320" y="530" as="targetPoint" />
          </mxGeometry>
        </mxCell>
        <mxCell id="UrGpD2XHEWLCbBZksvqv-13" value="Validar avistamientos de especies." style="ellipse;whiteSpace=wrap;html=1;" vertex="1" parent="1">
          <mxGeometry x="339" y="-720" width="320" height="80" as="geometry" />
        </mxCell>
        <mxCell id="UrGpD2XHEWLCbBZksvqv-14" value="&lt;p style=&quot;orphans: 0; widows: 0; text-indent: -0.64cm; margin-left: 2.54cm; margin-bottom: 0cm&quot; align=&quot;left&quot;&gt;&lt;font face=&quot;Calibri, serif&quot;&gt;&lt;font style=&quot;font-size: 11pt&quot;&gt;Colaborar con las autoridades en la identificación de especies peligrosas o&lt;br&gt;invasoras a partir de las notificaciones enviadas por los usuarios&lt;br&gt;estándar&lt;/font&gt;&lt;/font&gt;&lt;/p&gt;" style="ellipse;whiteSpace=wrap;html=1;" vertex="1" parent="1">
          <mxGeometry x="270" y="-610" width="540" height="150" as="geometry" />
        </mxCell>
        <mxCell id="UrGpD2XHEWLCbBZksvqv-17" value="" style="endArrow=none;html=1;rounded=0;entryX=0;entryY=0.5;entryDx=0;entryDy=0;exitX=0.5;exitY=0.5;exitDx=0;exitDy=0;exitPerimeter=0;" edge="1" parent="1" source="UrGpD2XHEWLCbBZksvqv-2" target="UrGpD2XHEWLCbBZksvqv-13">
          <mxGeometry width="50" height="50" relative="1" as="geometry">
            <mxPoint x="414.5" y="-260" as="sourcePoint" />
            <mxPoint x="464.5" y="-310" as="targetPoint" />
          </mxGeometry>
        </mxCell>
        <mxCell id="UrGpD2XHEWLCbBZksvqv-18" value="" style="endArrow=none;html=1;rounded=0;entryX=0;entryY=0.5;entryDx=0;entryDy=0;exitX=0.5;exitY=0.5;exitDx=0;exitDy=0;exitPerimeter=0;" edge="1" parent="1" source="UrGpD2XHEWLCbBZksvqv-2" target="UrGpD2XHEWLCbBZksvqv-14">
          <mxGeometry width="50" height="50" relative="1" as="geometry">
            <mxPoint x="414.5" y="-260" as="sourcePoint" />
            <mxPoint x="274.5" y="-405" as="targetPoint" />
          </mxGeometry>
        </mxCell>
        <mxCell id="UrGpD2XHEWLCbBZksvqv-19" value="&lt;p style=&quot;orphans: 0; widows: 0; text-indent: -0.64cm; margin-left: 2.54cm; margin-bottom: 0cm&quot; align=&quot;left&quot;&gt;&lt;font face=&quot;Calibri, serif&quot;&gt;&lt;font style=&quot;font-size: 11pt&quot;&gt;Fotografiar fauna o flora y recibir una identificación automática mediante IA&lt;/font&gt;&lt;/font&gt;&lt;/p&gt;" style="ellipse;whiteSpace=wrap;html=1;" vertex="1" parent="1">
          <mxGeometry x="334.5" y="-440" width="420" height="80" as="geometry" />
        </mxCell>
        <mxCell id="UrGpD2XHEWLCbBZksvqv-20" value="&lt;p style=&quot;orphans: 0; widows: 0; text-indent: -0.64cm; margin-left: 2.54cm; margin-bottom: 0cm&quot; align=&quot;left&quot;&gt;&lt;font face=&quot;Calibri, serif&quot;&gt;&lt;font style=&quot;font-size: 11pt&quot;&gt;registrar la localización de la especie detectada.&lt;/font&gt;&lt;/font&gt;&lt;/p&gt;" style="ellipse;whiteSpace=wrap;html=1;" vertex="1" parent="1">
          <mxGeometry x="324.5" y="-340" width="440" height="80" as="geometry" />
        </mxCell>
        <mxCell id="UrGpD2XHEWLCbBZksvqv-21" value="&lt;p style=&quot;orphans: 0; widows: 0; text-indent: -0.64cm; margin-left: 2.54cm; margin-bottom: 0cm&quot; align=&quot;left&quot;&gt;&lt;font face=&quot;Calibri, serif&quot;&gt;&lt;font style=&quot;font-size: 11pt&quot;&gt;notificar la presencia de especies peligrosas o invasoras a las autoridades&lt;/font&gt;&lt;/font&gt;&lt;/p&gt;" style="ellipse;whiteSpace=wrap;html=1;" vertex="1" parent="1">
          <mxGeometry x="343.5" y="-210" width="320" height="80" as="geometry" />
        </mxCell>
        <mxCell id="UrGpD2XHEWLCbBZksvqv-25" value="Ciudadano" style="shape=umlActor;verticalLabelPosition=bottom;verticalAlign=top;html=1;outlineConnect=0;" vertex="1" parent="1">
          <mxGeometry x="144.5" y="120" width="30" height="60" as="geometry" />
        </mxCell>
        <mxCell id="UrGpD2XHEWLCbBZksvqv-26" value="&lt;p style=&quot;orphans: 0; widows: 0; text-indent: -0.64cm; margin-left: 1.27cm; margin-bottom: 0cm&quot; align=&quot;left&quot;&gt;&lt;br/&gt;&lt;font face=&quot;Calibri, serif&quot;&gt;&lt;font style=&quot;font-size: 11pt&quot;&gt;Acceder&lt;br/&gt;a un mapa de avistamientos&lt;/font&gt;&lt;/font&gt;&lt;/p&gt;" style="ellipse;whiteSpace=wrap;html=1;" vertex="1" parent="1">
          <mxGeometry x="324.5" y="120" width="320" height="80" as="geometry" />
        </mxCell>
        <mxCell id="UrGpD2XHEWLCbBZksvqv-27" value="&lt;p style=&quot;orphans: 0; widows: 0; text-indent: -0.64cm; margin-left: 1.27cm; margin-bottom: 0cm&quot; align=&quot;left&quot;&gt;&lt;br/&gt;&lt;font face=&quot;Calibri, serif&quot;&gt;&lt;font style=&quot;font-size: 11pt&quot;&gt;Consultar&lt;br/&gt;información sobre especies&lt;/font&gt;&lt;/font&gt;&lt;/p&gt;" style="ellipse;whiteSpace=wrap;html=1;" vertex="1" parent="1">
          <mxGeometry x="324.5" y="230" width="320" height="80" as="geometry" />
        </mxCell>
        <mxCell id="UrGpD2XHEWLCbBZksvqv-28" value="&lt;p style=&quot;orphans: 0; widows: 0; text-indent: -0.64cm; margin-left: 1.27cm; margin-bottom: 0cm&quot; align=&quot;left&quot;&gt;&lt;br/&gt;&lt;font face=&quot;Calibri, serif&quot;&gt;&lt;font style=&quot;font-size: 11pt&quot;&gt;Consultar&lt;br/&gt;una sección FAQ&lt;/font&gt;&lt;/font&gt;&lt;/p&gt;" style="ellipse;whiteSpace=wrap;html=1;" vertex="1" parent="1">
          <mxGeometry x="324.5" y="330" width="320" height="80" as="geometry" />
        </mxCell>
        <mxCell id="UrGpD2XHEWLCbBZksvqv-29" value="" style="endArrow=none;html=1;rounded=0;entryX=0;entryY=0.5;entryDx=0;entryDy=0;exitX=0.5;exitY=0.5;exitDx=0;exitDy=0;exitPerimeter=0;" edge="1" parent="1" source="UrGpD2XHEWLCbBZksvqv-25" target="UrGpD2XHEWLCbBZksvqv-26">
          <mxGeometry width="50" height="50" relative="1" as="geometry">
            <mxPoint x="300" y="140" as="sourcePoint" />
            <mxPoint x="350" y="90" as="targetPoint" />
          </mxGeometry>
        </mxCell>
        <mxCell id="UrGpD2XHEWLCbBZksvqv-30" value="" style="endArrow=none;html=1;rounded=0;entryX=0;entryY=0.5;entryDx=0;entryDy=0;exitX=0.5;exitY=0.5;exitDx=0;exitDy=0;exitPerimeter=0;" edge="1" parent="1" source="UrGpD2XHEWLCbBZksvqv-25" target="UrGpD2XHEWLCbBZksvqv-27">
          <mxGeometry width="50" height="50" relative="1" as="geometry">
            <mxPoint x="290" y="190" as="sourcePoint" />
            <mxPoint x="340" y="140" as="targetPoint" />
          </mxGeometry>
        </mxCell>
        <mxCell id="UrGpD2XHEWLCbBZksvqv-31" value="" style="endArrow=none;html=1;rounded=0;entryX=0;entryY=0.5;entryDx=0;entryDy=0;exitX=0.5;exitY=0.5;exitDx=0;exitDy=0;exitPerimeter=0;" edge="1" parent="1" source="UrGpD2XHEWLCbBZksvqv-25" target="UrGpD2XHEWLCbBZksvqv-28">
          <mxGeometry width="50" height="50" relative="1" as="geometry">
            <mxPoint x="290" y="190" as="sourcePoint" />
            <mxPoint x="340" y="140" as="targetPoint" />
          </mxGeometry>
        </mxCell>
        <mxCell id="UrGpD2XHEWLCbBZksvqv-32" value="" style="endArrow=none;html=1;rounded=0;entryX=0;entryY=0.5;entryDx=0;entryDy=0;exitX=0.5;exitY=0.5;exitDx=0;exitDy=0;exitPerimeter=0;" edge="1" parent="1" source="UrGpD2XHEWLCbBZksvqv-1" target="UrGpD2XHEWLCbBZksvqv-19">
          <mxGeometry width="50" height="50" relative="1" as="geometry">
            <mxPoint x="230" y="-20" as="sourcePoint" />
            <mxPoint x="280" y="-70" as="targetPoint" />
          </mxGeometry>
        </mxCell>
        <mxCell id="UrGpD2XHEWLCbBZksvqv-33" value="" style="endArrow=none;html=1;rounded=0;entryX=0;entryY=0.5;entryDx=0;entryDy=0;exitX=0.5;exitY=0.5;exitDx=0;exitDy=0;exitPerimeter=0;" edge="1" parent="1" source="UrGpD2XHEWLCbBZksvqv-1" target="UrGpD2XHEWLCbBZksvqv-20">
          <mxGeometry width="50" height="50" relative="1" as="geometry">
            <mxPoint x="230" y="-20" as="sourcePoint" />
            <mxPoint x="280" y="-70" as="targetPoint" />
          </mxGeometry>
        </mxCell>
        <mxCell id="UrGpD2XHEWLCbBZksvqv-34" value="" style="endArrow=none;html=1;rounded=0;entryX=0;entryY=0.5;entryDx=0;entryDy=0;exitX=0.5;exitY=0.5;exitDx=0;exitDy=0;exitPerimeter=0;" edge="1" parent="1" source="UrGpD2XHEWLCbBZksvqv-1" target="UrGpD2XHEWLCbBZksvqv-21">
          <mxGeometry width="50" height="50" relative="1" as="geometry">
            <mxPoint x="230" y="-20" as="sourcePoint" />
            <mxPoint x="280" y="-70" as="targetPoint" />
          </mxGeometry>
        </mxCell>
        <mxCell id="UrGpD2XHEWLCbBZksvqv-35" value="" style="endArrow=classic;html=1;rounded=0;exitX=0.5;exitY=0;exitDx=0;exitDy=0;exitPerimeter=0;" edge="1" parent="1" source="UrGpD2XHEWLCbBZksvqv-25">
          <mxGeometry width="50" height="50" relative="1" as="geometry">
            <mxPoint x="230" y="-20" as="sourcePoint" />
            <mxPoint x="160" y="20" as="targetPoint" />
          </mxGeometry>
        </mxCell>
        <mxCell id="UrGpD2XHEWLCbBZksvqv-36" value="" style="endArrow=classic;html=1;rounded=0;exitX=0.5;exitY=0;exitDx=0;exitDy=0;exitPerimeter=0;" edge="1" parent="1" source="UrGpD2XHEWLCbBZksvqv-1">
          <mxGeometry width="50" height="50" relative="1" as="geometry">
            <mxPoint x="230" y="-120" as="sourcePoint" />
            <mxPoint x="160" y="-300" as="targetPoint" />
          </mxGeometry>
        </mxCell>
        <mxCell id="UrGpD2XHEWLCbBZksvqv-37" value="&lt;p style=&quot;orphans: 0; widows: 0; text-indent: -0.64cm; margin-left: 1.27cm; margin-bottom: 0cm&quot; align=&quot;left&quot;&gt;Registrarse&lt;/p&gt;" style="ellipse;whiteSpace=wrap;html=1;" vertex="1" parent="1">
          <mxGeometry x="310" y="10" width="320" height="80" as="geometry" />
        </mxCell>
        <mxCell id="UrGpD2XHEWLCbBZksvqv-38" value="" style="endArrow=none;html=1;rounded=0;exitX=0.5;exitY=0.5;exitDx=0;exitDy=0;exitPerimeter=0;entryX=0;entryY=0.5;entryDx=0;entryDy=0;" edge="1" parent="1" source="UrGpD2XHEWLCbBZksvqv-25" target="UrGpD2XHEWLCbBZksvqv-37">
          <mxGeometry width="50" height="50" relative="1" as="geometry">
            <mxPoint x="390" y="90" as="sourcePoint" />
            <mxPoint x="440" y="40" as="targetPoint" />
          </mxGeometry>
        </mxCell>
        <mxCell id="UrGpD2XHEWLCbBZksvqv-39" value="&lt;p style=&quot;orphans: 0; widows: 0; text-indent: -0.64cm; margin-left: 2.54cm; margin-bottom: 0cm&quot; align=&quot;left&quot;&gt;&lt;font face=&quot;Calibri, serif&quot;&gt;&lt;font style=&quot;font-size: 11pt&quot;&gt;Registrarse como usuario experto&lt;/font&gt;&lt;/font&gt;&lt;/p&gt;" style="ellipse;whiteSpace=wrap;html=1;" vertex="1" parent="1">
          <mxGeometry x="334.5" y="-110" width="320" height="80" as="geometry" />
        </mxCell>
        <mxCell id="UrGpD2XHEWLCbBZksvqv-40" value="" style="endArrow=open;dashed=1;html=1;strokeWidth=4;rounded=0;exitX=1;exitY=0.5;exitDx=0;exitDy=0;endFill=0;entryX=1;entryY=0.5;entryDx=0;entryDy=0;jumpSize=8;startSize=12;endSize=21;" edge="1" parent="1" source="UrGpD2XHEWLCbBZksvqv-37" target="UrGpD2XHEWLCbBZksvqv-39">
          <mxGeometry width="50" height="50" relative="1" as="geometry">
            <mxPoint x="390" y="-120" as="sourcePoint" />
            <mxPoint x="720" y="-100" as="targetPoint" />
            <Array as="points">
              <mxPoint x="730" />
            </Array>
          </mxGeometry>
        </mxCell>
        <mxCell id="UrGpD2XHEWLCbBZksvqv-41" value="&lt;span style=&quot;font-size: 11px; background-color: rgb(18, 18, 18);&quot;&gt;&amp;lt;&amp;lt;include&amp;gt;&amp;gt;&lt;/span&gt;" style="text;html=1;align=center;verticalAlign=middle;resizable=0;points=[];autosize=1;strokeColor=none;fillColor=none;" vertex="1" parent="1">
          <mxGeometry x="630" y="-20" width="80" height="30" as="geometry" />
        </mxCell>
        <mxCell id="UrGpD2XHEWLCbBZksvqv-42" value="" style="endArrow=open;dashed=1;html=1;strokeWidth=4;rounded=0;exitX=1;exitY=0.5;exitDx=0;exitDy=0;endFill=0;jumpSize=8;startSize=12;endSize=21;entryX=1;entryY=0.5;entryDx=0;entryDy=0;" edge="1" parent="1" source="UrGpD2XHEWLCbBZksvqv-19" target="UrGpD2XHEWLCbBZksvqv-20">
          <mxGeometry width="50" height="50" relative="1" as="geometry">
            <mxPoint x="640" y="60" as="sourcePoint" />
            <mxPoint x="740" y="-200" as="targetPoint" />
            <Array as="points">
              <mxPoint x="900" y="-320" />
            </Array>
          </mxGeometry>
        </mxCell>
        <mxCell id="UrGpD2XHEWLCbBZksvqv-43" value="" style="endArrow=open;dashed=1;html=1;strokeWidth=4;rounded=0;exitX=1;exitY=0.5;exitDx=0;exitDy=0;endFill=0;jumpSize=8;startSize=12;endSize=21;entryX=1;entryY=0.5;entryDx=0;entryDy=0;" edge="1" parent="1" source="UrGpD2XHEWLCbBZksvqv-19">
          <mxGeometry width="50" height="50" relative="1" as="geometry">
            <mxPoint x="765" y="-390" as="sourcePoint" />
            <mxPoint x="673" y="-160" as="targetPoint" />
            <Array as="points">
              <mxPoint x="1020" y="-320" />
            </Array>
          </mxGeometry>
        </mxCell>
        <mxCell id="UrGpD2XHEWLCbBZksvqv-44" value="&lt;span style=&quot;font-size: 11px; background-color: rgb(18, 18, 18);&quot;&gt;&amp;lt;&amp;lt;include&amp;gt;&amp;gt;&lt;/span&gt;" style="text;html=1;align=center;verticalAlign=middle;resizable=0;points=[];autosize=1;strokeColor=none;fillColor=none;" vertex="1" parent="1">
          <mxGeometry x="910" y="-330" width="80" height="30" as="geometry" />
        </mxCell>
        <mxCell id="UrGpD2XHEWLCbBZksvqv-45" value="&lt;span style=&quot;font-size: 11px; background-color: rgb(18, 18, 18);&quot;&gt;&amp;lt;&amp;lt;extend&amp;gt;&amp;gt;&lt;/span&gt;" style="text;html=1;align=center;verticalAlign=middle;resizable=0;points=[];autosize=1;strokeColor=none;fillColor=none;" vertex="1" parent="1">
          <mxGeometry x="790" y="-350" width="80" height="30" as="geometry" />
        </mxCell>
        <mxCell id="UrGpD2XHEWLCbBZksvqv-46" value="" style="endArrow=open;dashed=1;html=1;strokeWidth=4;rounded=0;exitX=1;exitY=0.5;exitDx=0;exitDy=0;endFill=0;jumpSize=8;startSize=12;endSize=21;entryX=1;entryY=0.5;entryDx=0;entryDy=0;" edge="1" parent="1" source="UrGpD2XHEWLCbBZksvqv-13" target="UrGpD2XHEWLCbBZksvqv-21">
          <mxGeometry width="50" height="50" relative="1" as="geometry">
            <mxPoint x="765" y="-390" as="sourcePoint" />
            <mxPoint x="683" y="-150" as="targetPoint" />
            <Array as="points">
              <mxPoint x="1030" y="-370" />
            </Array>
          </mxGeometry>
        </mxCell>
        <mxCell id="UrGpD2XHEWLCbBZksvqv-47" value="&lt;span style=&quot;font-size: 11px; background-color: rgb(18, 18, 18);&quot;&gt;&amp;lt;&amp;lt;include&amp;gt;&amp;gt;&lt;/span&gt;" style="text;html=1;align=center;verticalAlign=middle;resizable=0;points=[];autosize=1;strokeColor=none;fillColor=none;" vertex="1" parent="1">
          <mxGeometry x="910" y="-410" width="80" height="30" as="geometry" />
        </mxCell>
      </root>
    </mxGraphModel>
  </diagram>
</mxfile>
